<svg id="favorite_border_black_24dp" xmlns="http://www.w3.org/2000/svg" width="71.833" height="71.833" viewBox="0 0 71.833 71.833">
  <path id="패스_117" data-name="패스 117" d="M0,0H71.833V71.833H0Z" fill="none"/>
  <path id="패스_118" data-name="패스 118" d="M45.4,3A17.924,17.924,0,0,0,31.93,9.255,17.923,17.923,0,0,0,18.462,3,16.3,16.3,0,0,0,2,19.462C2,30.775,12.176,39.994,27.591,54l4.34,3.921,4.34-3.951c15.414-13.978,25.591-23.2,25.591-34.51A16.3,16.3,0,0,0,45.4,3ZM32.23,49.542l-.3.3-.3-.3c-14.247-12.9-23.645-21.43-23.645-30.08A10.229,10.229,0,0,1,18.462,8.986,11.7,11.7,0,0,1,29.147,16.05h5.6A11.627,11.627,0,0,1,45.4,8.986,10.229,10.229,0,0,1,55.875,19.462C55.875,28.112,46.477,36.642,32.23,49.542Z" transform="translate(3.986 5.979)" fill="#000"/>
</svg>
