<svg id="notifications_active_black_24dp" xmlns="http://www.w3.org/2000/svg" width="80" height="80" viewBox="0 0 80 80">
  <path id="패스_115" data-name="패스 115" d="M0,0H80V80H0Z" fill="none"/>
  <path id="패스_116" data-name="패스 116" d="M33.543,63.687a6.317,6.317,0,0,0,6.322-6.276H27.222A6.317,6.317,0,0,0,33.543,63.687ZM52.508,44.861V29.171c0-9.633-5.152-17.7-14.224-19.831V7.207a4.741,4.741,0,0,0-9.482,0V9.34c-9.04,2.134-14.224,10.167-14.224,19.831V44.861L8.257,51.136v3.138H58.83V51.136ZM46.187,48H20.9V29.171c0-7.782,4.773-14.12,12.643-14.12s12.643,6.338,12.643,14.12ZM19.573,7.458l-4.52-4.487A32.642,32.642,0,0,0,2.03,27.6H8.352A26.455,26.455,0,0,1,19.573,7.458ZM58.735,27.6h6.322A32.842,32.842,0,0,0,52.034,2.971L47.546,7.458A26.61,26.61,0,0,1,58.735,27.6Z" transform="translate(6.457 7.951)" fill="#000"/>
</svg>
