<svg id="content_copy_black_24dp" xmlns="http://www.w3.org/2000/svg" width="63.636" height="63.636" viewBox="0 0 63.636 63.636">
  <path id="패스_255" data-name="패스 255" d="M0,0H63.636V63.636H0Z" fill="none"/>
  <path id="패스_256" data-name="패스 256" d="M39.121,1H7.3A5.319,5.319,0,0,0,2,6.3V43.424H7.3V6.3H39.121Zm7.954,10.606H17.909a5.319,5.319,0,0,0-5.3,5.3V54.03a5.319,5.319,0,0,0,5.3,5.3H47.075a5.319,5.319,0,0,0,5.3-5.3V16.909A5.319,5.319,0,0,0,47.075,11.606Zm0,42.424H17.909V16.909H47.075Z" transform="translate(3.303 1.651)" fill="#000"/>
</svg>
