<svg xmlns="http://www.w3.org/2000/svg" width="24" height="24" viewBox="0 0 52 52">
  <path id="path_164" data-name="path 164" d="M0,0H52V52H0Z" fill="none"/>
  <path id="path_165" data-name="path 165" d="M18.333,19.333V36.667L33.5,28Zm26-8.667H27.91l7.128-7.128L33.5,2l-8.667,8.667h-.065L16.1,2l-1.5,1.538,7.107,7.128H5.333A4.346,4.346,0,0,0,1,15V41a4.346,4.346,0,0,0,4.333,4.333h39A4.346,4.346,0,0,0,48.667,41V15A4.346,4.346,0,0,0,44.333,10.667Zm0,30.333h-39V15h39Z" transform="translate(1.167 2.333)" fill="#000"/>
</svg>
